<mxfile host="app.diagrams.net" modified="2024-03-13T00:48:37.121Z" agent="Mozilla/5.0 (Windows NT 10.0; Win64; x64) AppleWebKit/537.36 (KHTML, like Gecko) Chrome/120.0.0.0 YaBrowser/24.1.0.0 Safari/537.36" etag="a-gtmbt-Us_noMT759by" version="24.0.1" type="device">
  <diagram name="Страница — 1" id="04X9m_z7hFCkWU0wWO8R">
    <mxGraphModel dx="954" dy="548" grid="1" gridSize="10" guides="1" tooltips="1" connect="1" arrows="1" fold="1" page="1" pageScale="1" pageWidth="827" pageHeight="1169" math="0" shadow="0">
      <root>
        <mxCell id="0" />
        <mxCell id="1" parent="0" />
        <mxCell id="CYFQGRgLWxrWDskYF3xV-57" style="edgeStyle=orthogonalEdgeStyle;rounded=0;orthogonalLoop=1;jettySize=auto;html=1;exitX=0.5;exitY=1;exitDx=0;exitDy=0;entryX=0.5;entryY=1;entryDx=0;entryDy=0;" edge="1" parent="1" source="CYFQGRgLWxrWDskYF3xV-16" target="CYFQGRgLWxrWDskYF3xV-25">
          <mxGeometry relative="1" as="geometry" />
        </mxCell>
        <mxCell id="CYFQGRgLWxrWDskYF3xV-16" value="" style="rounded=0;whiteSpace=wrap;html=1;" vertex="1" parent="1">
          <mxGeometry x="60" y="430" width="240" height="70" as="geometry" />
        </mxCell>
        <mxCell id="CYFQGRgLWxrWDskYF3xV-5" value="" style="edgeStyle=orthogonalEdgeStyle;rounded=0;orthogonalLoop=1;jettySize=auto;html=1;" edge="1" parent="1" source="CYFQGRgLWxrWDskYF3xV-2" target="CYFQGRgLWxrWDskYF3xV-4">
          <mxGeometry relative="1" as="geometry" />
        </mxCell>
        <mxCell id="CYFQGRgLWxrWDskYF3xV-2" value="Начало" style="rounded=1;whiteSpace=wrap;html=1;perimeterSpacing=0;arcSize=50;" vertex="1" parent="1">
          <mxGeometry x="110" y="200" width="140" height="40" as="geometry" />
        </mxCell>
        <mxCell id="CYFQGRgLWxrWDskYF3xV-7" style="edgeStyle=orthogonalEdgeStyle;rounded=0;orthogonalLoop=1;jettySize=auto;html=1;exitX=0.5;exitY=1;exitDx=0;exitDy=0;entryX=0.5;entryY=0;entryDx=0;entryDy=0;" edge="1" parent="1" source="CYFQGRgLWxrWDskYF3xV-4">
          <mxGeometry relative="1" as="geometry">
            <mxPoint x="180" y="350" as="targetPoint" />
          </mxGeometry>
        </mxCell>
        <mxCell id="CYFQGRgLWxrWDskYF3xV-4" value="&lt;font style=&quot;font-size: 11px;&quot;&gt;&lt;sub&gt;Ввод&lt;/sub&gt;&lt;/font&gt;&lt;div style=&quot;font-size: 11px; line-height: 70%;&quot;&gt;&lt;font style=&quot;font-size: 11px;&quot;&gt;&lt;sub&gt;&amp;nbsp;{equation_1, ..., equation_n},&amp;nbsp;&lt;/sub&gt;&lt;/font&gt;&lt;/div&gt;&lt;div style=&quot;font-size: 11px; line-height: 70%;&quot;&gt;&lt;font style=&quot;font-size: 11px;&quot;&gt;&lt;sub&gt;num_of_unknowns,&lt;/sub&gt;&lt;/font&gt;&lt;/div&gt;&lt;div style=&quot;font-size: 11px; line-height: 70%;&quot;&gt;&lt;font style=&quot;font-size: 11px;&quot;&gt;&lt;sub&gt;initial_approximations&amp;nbsp;&lt;/sub&gt;&lt;/font&gt;&lt;/div&gt;" style="shape=parallelogram;perimeter=parallelogramPerimeter;whiteSpace=wrap;html=1;fixedSize=1;" vertex="1" parent="1">
          <mxGeometry x="110" y="270" width="140" height="60" as="geometry" />
        </mxCell>
        <mxCell id="CYFQGRgLWxrWDskYF3xV-11" value="Конец" style="rounded=1;whiteSpace=wrap;html=1;perimeterSpacing=0;arcSize=50;" vertex="1" parent="1">
          <mxGeometry x="110.5" y="800" width="140" height="40" as="geometry" />
        </mxCell>
        <mxCell id="CYFQGRgLWxrWDskYF3xV-53" style="edgeStyle=orthogonalEdgeStyle;rounded=0;orthogonalLoop=1;jettySize=auto;html=1;exitX=0.5;exitY=1;exitDx=0;exitDy=0;entryX=0.5;entryY=0;entryDx=0;entryDy=0;" edge="1" parent="1" source="CYFQGRgLWxrWDskYF3xV-13" target="CYFQGRgLWxrWDskYF3xV-16">
          <mxGeometry relative="1" as="geometry" />
        </mxCell>
        <mxCell id="CYFQGRgLWxrWDskYF3xV-13" value="Цикл i&lt;div&gt;от 0 до n&lt;/div&gt;" style="shape=loopLimit;whiteSpace=wrap;html=1;" vertex="1" parent="1">
          <mxGeometry x="120" y="350" width="120" height="60" as="geometry" />
        </mxCell>
        <mxCell id="CYFQGRgLWxrWDskYF3xV-61" style="edgeStyle=orthogonalEdgeStyle;rounded=0;orthogonalLoop=1;jettySize=auto;html=1;exitX=0.5;exitY=0;exitDx=0;exitDy=0;entryX=0.5;entryY=0;entryDx=0;entryDy=0;" edge="1" parent="1" source="CYFQGRgLWxrWDskYF3xV-25" target="CYFQGRgLWxrWDskYF3xV-58">
          <mxGeometry relative="1" as="geometry" />
        </mxCell>
        <mxCell id="CYFQGRgLWxrWDskYF3xV-25" value="" style="shape=loopLimit;whiteSpace=wrap;html=1;rotation=-180;" vertex="1" parent="1">
          <mxGeometry x="120" y="520" width="120" height="60" as="geometry" />
        </mxCell>
        <mxCell id="CYFQGRgLWxrWDskYF3xV-28" value="Увеличить i&lt;div&gt;на 1&lt;/div&gt;" style="text;html=1;align=center;verticalAlign=middle;resizable=0;points=[];autosize=1;strokeColor=none;fillColor=none;" vertex="1" parent="1">
          <mxGeometry x="135" y="530" width="90" height="40" as="geometry" />
        </mxCell>
        <mxCell id="CYFQGRgLWxrWDskYF3xV-66" value="" style="edgeStyle=orthogonalEdgeStyle;rounded=0;orthogonalLoop=1;jettySize=auto;html=1;" edge="1" parent="1" source="CYFQGRgLWxrWDskYF3xV-49" target="CYFQGRgLWxrWDskYF3xV-11">
          <mxGeometry relative="1" as="geometry" />
        </mxCell>
        <mxCell id="CYFQGRgLWxrWDskYF3xV-49" value="Вывести&amp;nbsp;&lt;span style=&quot;background-color: initial;&quot;&gt;xi&lt;/span&gt;" style="shape=parallelogram;perimeter=parallelogramPerimeter;whiteSpace=wrap;html=1;fixedSize=1;" vertex="1" parent="1">
          <mxGeometry x="112" y="710" width="136" height="60" as="geometry" />
        </mxCell>
        <mxCell id="CYFQGRgLWxrWDskYF3xV-54" value="" style="shape=image;verticalLabelPosition=bottom;labelBackgroundColor=default;verticalAlign=top;aspect=fixed;imageAspect=0;image=data:image/png,iVBORw0KGgoAAAANSUhEUgAAAl4AAABuCAYAAAD2xB0CAAAAAXNSR0IArs4c6QAAAARnQU1BAACxjwv8YQUAAAAJcEhZcwAADsMAAA7DAcdvqGQAACdCSURBVHhe7d0PcFPXvSfwb3c7gzIpMTN5E9HHgthgYjYFm2bBfi8laPgTZTKxzaPYbhocNzWBbWtMQm23LzhuUhz6EgwpsU02mDgJDt0yNm3WdrYZFF5AToesRTe1zDYPk0nGIqVjZcKMxJKxmPbN3XPuvZJl0J8rWRKS/f3MKLq6somse+7v/s65589XFAFERERElHL/QX8mIiIiohRj4kVERESUJky8iIiIiNKEiRcRERFRmjDxIiIiIkoTJl5EREREacLEi4iIiChNmHgRERERpQkTLyIiIqI0YeJFRERElCZMvIiIiIjShIkXERERUZow8SIiIiJKEyZeRERERGnCxIuIiIgoTZh4EREREaUJEy8iIiKiNGHiRURERJQmTLyIiIiI0oSJFxEREVGaMPEiIiIiShMmXkRERERpwsSLiIiIKE2YeBERERGlCRMvIiIiojRh4kVERESUJky8iIiIiNKEiRcRERFRmjDxIiIiIkoTJl5EREREacLEi4iIiChNpkXi5fujHY5L+ous5oHjuBM+/RUl2UUH7B9N/dv1D9vRd8GvvyKaCh9c7zrg+Zv+cgo8Az1wXtZfEFHGyvrEy/1OPSr/uw8L5+k7spoZC3EIq7b1wK3voeTwD7eh7EdOzLHk6HsSZ1o0ByM/LEbLWSZfNBVu2Bsq0epbCPNX9V1TYF4IHFq3BT0X9R1ElJGyOvHyn23Blh1A7b+Uw6LvC7rUh/oNJSgpXonFt92G225rhCMjrpM+eDz6ZhiWsoPoXHQI65l8Jc/FHtRs6oX1Fw0ovFXfF+SH62AlSkRZWb9clpPbUPJGjG/+1kI0vP7fcP4RJl+UKD+cL2xBzb/X4sWyG6JXYvFrQTkOHl7C5Isow2Vv4vWlA82PdGB5axNst+v7QpnyUFJXj6pvmqDmOSXLsdCkvnPT+IZ70Fi8AovfcOp7wjGhcPsvUPXRLuw+ztRr6tzo2rkF7if3ozZf33WdufduRf12G+Z+qr0uzAtzIbyeuMj9rHkumv+5Dc4v9X1EBvlPNWPzq8txsNGGsG2wCcYv08pa/OKxC9j1HCtuRJkqSxMvUVtsfxptC3bg0Qcj3Dq6PQ/W1VYULpqjviy4964bW8VSzg37S82o/57WmjJ/1Ra0DURp7gq4tRDbnixCz1NtsLPPxpR4jjdi+/A2/OThAn3P9Uwwf9MK6335evnYhqK71Y2YLP+0A03XmrHrDZe+h8gAvxNtTW2wPPlo+EqjlHD8EhW3x3ag6NgutL3D3qJEmSg7E69L/Wjd40LVk1WIdDnVeOA85VC3bPdE/0kjPMcrseUtA4nTJHOQX1aP/X2fo79R32WAuXgrGtCB5qO8qCdMXOC6DvShYHuUC1zAOSe65XNJEfKMdgMzFaLiBzY4nzqMPibIZJDn7VY0D1dhR8TKQECC8WteCbbWAR17usDoQVljBg1+ysrEy/1uF/pQBdu9Ma6Q/vMYektuGG/FiOXav+sbhlhge6IWVSVWFCww4RZ9ryGmIqx+GHC192VI37Ts4/+gV1zgClCxJvZFy/2nAfWWTrwto5Z7S2FFF7re4Y0dMsKNE2/2AZU2WGNVBhKOXyYUra4AhlvRN8DgQZlvpg1+ysLEyw3HW6IWKJMZo60Ya/KNt2JkDBOW37tNVHq74Dyn76I4+DH4Xpt4tqEoQt+uCRMtC6vvzlOfDbuzADbx79vfdWp9cYii+dSBnlNA6eqC8H27Qk0hfpnusYp0zYOuD4b1PUQZKurgJw/6flyiDn5auVgb/NR4KkZClQWDn7Iv8brkhF0ELvM9sVsmgq0YtoLJP3t5BM537bAPZ/alMucbRSiVBc/JGwbxG4bzmHh6+LpjH05Iy4L1ntAezH54hh0iqXLAHbEFvABFD4qntwbhYpcaisHzoR0OmFFgYADHlOJXTh6KSsT/r1+US30XUeaJNfjJhLx/qkf9d/NhUot7KZYvMjDKJMMHP2Vd4uW/MIQ+8bz6zrnajojCt2K4++tRtu0wBi+PwbFzFerfzeCr5QIL5Cd3udxqAKY4fHoechyDWVzgzPquiMK1LPhcaPteMXb1uDF2oQtl3+7AiP7W9cyLSsV/e+HSR0UShefHeZcavZD399qeyKYavyywyNuTw0NwM3hQhoo9+CkHeautsBbmQR1mkl+Euxaob8SUyYOfsi7x8ni0vjRL/lOMy6m4cA5OasWQ8zVtQYtvK47+5lHMOtqMtrMejPkyuQ+EGZY14unUCMa0HWSUKCfyslVkiZWgi8TW2Te5ZeGiHY07+5D/4km8uHoYLU/1YOSsL+KKAmaz/C0Pzo/yCkfRePC5mpwvwdxYtYEkxC/zPKv47wBG/qK9JsoocQx+0lqKhQeLYgyoC5HBg5+yL/FyyxqjFeZY/bsuuNArn9VWDBm0anD473+G9so8mD51wa5O62BG3h2Z3PnLhFtkmu/x45q2gwzyXNLapyy3xzq+HlzQb+WqLQsy6XrWhQ1tTbDe7sfQQIc2H9L95ogtZ6avaUP+r13L5CSebj4PRvvF05rIZSkoCfHL9DX5ngd+FksywD/cge0bmuFI060544OfAi3FohpyT3x9cA0NfpJzgm7Yjo4/xnv3awRd1ZVo7I9/YFUWdq6XcnDLLH0zgkArhrnwFrgaHkff3S+ifaPeU+LOCuz/TSc6//X3aFpt4H7xTTcC97RYizL95nwtxvENtiyUwnL1MCqfH0NVW6CTpwnWJ99H52vHce61qph9xfp4TycLiaTm0HaU7HGIrTSZc4soWdElM36NXGK5pOh8p5pRvKob5id3wHpDB/dUiGfwk95fV6RQ+fGOMjEy+OlWK6p+YEK3dRPq4xqdnoeKJ4sw8uP1KDvoiit+ZGniFctEK4bnhS1o/rwIBbd74Q8uRGuC5f5ylK+cXO90vbRMHTUR6bG4ug991YvDvhd4VB5jkMsqgZYF9KF+sx2W1eLiFtpEcHsBystsSMIoZ8o4Pjh+Xoz7us2o/4E1ZjKUPonFL6JEyKX3Nm1owZzWTjStSVegi2Pwk95fF/k2FNyp7VL9zYeRs3aRVLmiLDJvbPCT5cF96Gydg47vbIlrJKQpvxZHOyrgeqoMNXGsNDM9E6/gKLUqtP9rP35y9yAaVy3DHSsq0TEc+UsteOIcrly5EvHx8WulKH3t47DvBR5HH2YwzCbBkWPPHMf7vyqB7+jjWPmfl6HkKbt2i5GmKblW4iaU7J+D9sPytrK+OxMkGL9oGrvsRMePy7BMreAvxsrqFtiTsR6nnMrhkWY4N3Zi/2MxU6DkiWPwU7B/l7ztru4RLoqKskiSDp/xYWygDqtEvI7YB9fg4CfLY/vRudGJ5kdq4lrr1LSmCb/66Vz0VBtP2rI08fJhPFqnp+AotUJYV1pR/tOjOHuiAQWfioP18+4svKDmwTJP36S4eK9GOxFCRo7dsxoFJdvQ/vZJcfJ54DhYg644J58stTDpzhbu4zXYvMeJ0o79qAqtRaeDdzz6bYkkx6+8eSyXWU0kR1v+YT3q+3NQK+LTyY4KzD3ejLJ1zVOcXFubyqHHY0P7M+WxW56SyfDgJx9cZ/T+XfcuV1ul5WSrW/Z5sbXrOB41daH5JSc8n/sinlPGBz9ZUP5MO2we8X1/vwUuw9+tCYVPPodas5a09RnoFpR1iZfZIrNXBzxRRimEm//GtGCJtj3sgVfdA1HjXYz6d6dUclPMj3H5Yc0mxOjSRtcxz9PqRu7LUdqXw87fpQ/DFyVoNPC7l3pQuS7ydBL+q1qJmjUrc25WURSfdqGuugee+9ux5+F0Xm7MWFgink551PgUSbLil/+qLL9mmFgss5gLbd+XyRFgbfwZts0ZxK5tbVoLkKdlSpNrq1M5vCtKSF0tKtJc+TA++GkELjkgRe/fJZOumlct+FlrFfJudcNlF7mAeNd85x0RJySOa/DTnRX4SWMBcLYZzcfiqOLcasWOfxG5iUja6l6J3V80+xIvNXsFzv85UujyiAxZa8WYtL7Z56MYlM9r8qDl2C4M9m+ArTCTo5IH7lPiKfiZyTBRTuRg+kF3lIk4/k1vWZi0PqMHY5/IZzOWLNRaCnwfOuD+tvgZ9dWNtClOJn6eMpkHPT/fDrs4Xg1PVAQTm/Qw4w71AnceYxEzr+TFL88l+e8YmTOMMpWv/zAaz8otM1YXWOB6vxtO9R3JwOj+SL50oPUp2ZJkQ9OjN69/Y8zBT8OD6FMzq0Lc8qd6PP5WPl5sLdXPWwsqfnkcna+dxO8bY/8NxgY/mVBYvlV8K4B9R0tc01Co6yuLS4DnpadxOMaCEVmXeJkWLYds8xr4NNIFVWTB6giI69Y3u2MhiuSzZa4owqI2eKob9u8+CluK+xL6fT745MPjwtBH+s6PBuG8qO+PNo/YRbfaylIgTjhe0uN05xIUiifPSOTJZ90jLvW9yeszmjF3kfy2i7BQDWpu9B4zoSnKgsaeT2QA2zC54ydlJP+pVuySrZz3N6Eq7SOaTVj4DTV6RZlbK1nxyw23jDf5y8E74NnKh8FTXfq2Fl8W3lWkXwvMsD7TlHBLlfutNrTJ4FdZhQ0ZHLc8F/SVFzwt2PLzMRTdMwfekOkuTAtsKC8rhPmr+o5kuHMDqirlRhdajsYx+arJitLt8jrhQuMrfRH7nEnZ18drwV3q8FPPhxdEaAnj0/PqgTI/bkNRaFCaV4Idz4gawhs1KPteGe57ZS6eeyzyxTQ5POjfMR/z54vH4vtQr97WEt5qxPql+v75bSE1mMl8fxLZvjjBSgtT/TmnozwUPS6ejrnClxP4MfonmTAVouK+yd9v4Xdlv58+7N5ZibJ/2I7hytooE/y5MPiOeNpYhIIUJ/E0VW50t7epyXbVYxvS3NqlsdwtJ4D0wCUqBGElK375RjDYL/6dkjgmnKTM4h+C41V9W19VI+f+fTj32Wf47LNz6K8rTLClyoW+V+zqVtWD1thrht40E/N3Vb18Ev3/XIDBpvuw7OvLUHkovukb4pMDa8k2dcvV3hdXP7qCNRXa+Xa0C73ROvMrWWiofZUye3aN0vuFvuM6416vMv5X/cV15Hte+b7+Oh5jPZuVzT1j+qtUG1dOPz1bmf2tVmVI30Px8f6uTpSTVUqrS99xvXFZFiKUhL+Oq+XEe1V/HcknR5Ti2bOVmj6vvoMylqtVWSWOVbTYkXpDSuu3xGf4Ya8SqcQkI36Nv7cretmnzPfhXiVXLa/i8fTphK5ZYQXPg81K95/1fWkmr6Xy79r1XrS/alDZmys/Z7Fy5BN919VBZbc8f2ZvmtgXi3Ov+v/a/OtRfYcBf+5WNqvfUa6y2xHPNx/4zLOVTW9G/v9l5ajGggflPdgu2M+Eb8wz5eTAFKHpUb6XI9/XX8dr1n/UN1LNP4iBY4DtB6WssSYoZ00JGswudJ+K0FxskmUhQkn4qkktJzkxJhN0nxE1InMDyu9nc1emc53qVluTsNGKops2fUQBSn9gEzViOxwR+o9MPX75MTjQDdy/FaUxJ6ekTBXoCiFZFy1M+Jp1PdlPTD0P1thQeJNGyxsa/BRu/q5bLViySG6I7ybwq2dbsLjBHrEFLKHBT/MKYZPL9Ykj0PVBjA5bk+Sj8GFtK9qkrVmZeMmRB7VPmNF1oEsrQGliLjuKzo3p6TDhefswWlCL2sBs1RQ/kxVVjTa42t+EPRVrdfmd6H7FDltjFazJioqUIi4M9GjRwrqmUO8nc3NYNorz2tyF1mMpil6X+nF4P1C7Pd2DByiZtL6jmsK8ZB1JORJQL3eF+kjZm8HA4CePyxFmfcYxjJ6RzxODRuR0ExvWFkVMTBMb/GRBwWrt5z39ej8zQ0xYck+5thll0tb0Jl5+H9zD4ss8OwJPuPWgvhSFYsAB54XIc3Jo5FIuB7HtYivefCdaF7Ys9aUTHQcGUb43Xcs3ZJi/+eG54IRjwAV3uMEHohyNnBXlaNgdMpt3eJbHmrBnQQf2puAi5/6frWie1YSmtE5JkAn88Pm0czXiMco0cn1DveKa8EUsWfHrVit+0roN7gOpqBD44XyjFYMP78eONTOsNiDihs8zAqcsl/IYZUO5jMiN88HOv+XJG7jjG8GwHCkvlCZ6HiQjPhsZ/PRRj/o8eX3GuVh4r3xeqC00/6UD3e9W4NEHI99xSHTw09w7V2sbw0OIZzU488IlesUuyqSt+i3H1PKeV7qf3qQsVe+ZBh5LlU3Pn9b7OXiVoVc2T36/oEbpdatvRjTu3Kusy92lnI7VDyerjCuDz69TcneeiNgHZNr665hy+kC1skK/R649cpUVtUeU8/oxHu3bpRSHvp9brOx1xrgH7+5WqnPj6BNghPpvrptZfWi+GFJ6n7/++GiP3KJqpfVM5pZYrb+f/KwJ9GtJSfzSz/Nk9t0RtJhYp5y4aX3Y0m/8z6eVQzuvPz7aY+m3dyndI8n8hlNlVDny7Rs/f/hHrrL7jP5r8QrpN7bXqe8zKqnx2auc2Cl/ZrcyqO+ZTP8+wpRlWcaLc8X/t2Kzsqlok4jB0Y6v3qeyqluJu3e23jdMPuL6roL9w2ZH7BOe+sTLfUKpWysCc8Ve5cSI3ilUBPAjW3PVD7b02V7lhAhAMlAdcelh7Iz4YuUHX3tIOa/uiWxUBNTird3iME0Poz3VytJp9PcYdlWcIBWiTKytU444R7XOxeNjyolnRdkQZSH3kSPKiV9XK7niRN5tH1PL0fhIt1LzX/WTM8Y1f9zVqmx6aK8ymIwk/eqgsnftutgJ37QxrpzvqVPWqcFkqbL5wAnl/Bf63z4uko7ge7lKdc+NJXfMcUg59DtxTPXXN8PQPi3ezJ4tyoC+z5CUxq9R5UR9cdjvLCGyMlBQrXTHqLBOH15lcN8mLZEQcWHXm4PKaOD8vjqqnA68NzvcuTouym2riDWZUlk4rxypKlaKS/XH2qV6eRWPgnUT+9XHroQT60kVkHjKSQric8zBT1ejDG5SB0aJR6ygMpXBT+J8CiRQ1b+NJ20bVHbrv5e7L/zQuBQnXuJgyaAVLpE4s1v9YNpDnBgfat+gWmML7jdWO/V+eEI5fZNGZySXuIjZh/RadJJ9MagcOdCqtKbq8crpKSSLsvYjT+owiVFI4Vcv7IETQG1xCuw3WCNxn1ZO/Gnq3+74nweV01lRi04Gr3JaD67qeRq2VUu23siRxtrPTA6kouZaOltZ1X4zx+YGatfi8Ug8lZp0xC95zp9WxiKMYoyH13VCGZopLV1XRaKiJ7+zcyMlm2NKd5V+LK5vORk/rewS++t+l5JoO2UTCVLki3ciAqMJ42v5TVF8Fsdgt/iZVQdSFxtG39wkjv1u5XQi4Tqk5ar49XiubqJirv9epNGoKU28Rl+Xf3SEW4GhgSs4tHpM6d2q75OPRL8wupHr0OQm4DgeS9eG1rYiPXbHbHWKRA59z400PDj0xA6ZWmOiBUM+knwbkXTa7TDtO86NfpESNctNgeMROlWCuj83vqb6pAu5AMdxy4HxK1ONKt2BpOuGRH+yccfu4K210Au8tj+B285pEhrfjCeHcgqc6AVu8Hm9bEa8xXejVMZn7RxL0a3xcZEAfWu2simupClUSAL1fDzt5LHjTeoSLz2bjTSXxeivA5l36Pwa4+KATQT6pDXBUwbT7uXnPhuhr0voBe65icI/9tvqYEBdJ04KXt+ST9a6A99xtHmnNEPB+Wtmz564tTD6evGU5qLzfjKo9Pb1KkPxtPTfICSAhpShqBi/MtZQe+A7NtBaMtarVOs/O1EO9TkSY5bpCP46pgzZe5Vex2hivx9TaAIfModVVIFkVFSQ7JE/1UTiZfSWe6rjs9aqvC4FLeLqObp2rzKU8MUhdYlX6kY1XrumLstRuybcyAkfRpyBobIFKLo78DMmFNS9jY9/34/3/+0cOstm2mixmcgPmLehaWP44cCuD7UZlqXQ0S3mjZ34wx9O4uQfPsPJnyY6gzNF5HegdUeHPuLIjIaHbTFmuA6MNpI64LognuR0G686Ep6Lzn+2BZuWr0fl5krct3g9Wv6YhFFqRpcWYfzKTJ92ofmpwHA/G7aWxChZ5rlYom/Kdf8uXBLPcrqNl4yU6XDc6PnRKty3qRKVxcuwYltfxFF5iXNjRF02SsqHxcham5ec6D2mfZKcWbPU5+RIdXwuQO3rnbAcaEZXtJne43WxB7ubxrDnlw0oyMCLQ+oSrxwbml5ugDXsBG0jGAwshWAuVZcAmmCCOd+Kgnm8lM4Meah6eR+q8sMdbzcunAlMAyHLyeQwmXNXIQrvmi4Tl/pgb1iM2267LemP9Yfkip/xcR9vQ0vgiiIC7wMx1zXMwR0L9E3Be9UPz9utaPZsw7YHE0lAfBj4dXPIclpONAfmg0gHxi/NRx1YH6ZMTfmxuB72uGcC8sPxZjOCl/qN38EDMacIMMOsToQp+TB+zQ/n0Vb0rdyB0kTW6hzuQ6ue4EieY90YkMlcMl10T8wbVbIcC418zHkl2PObTnQ6/oCmpK5Bmob4vKAcB39jRd+OFjjDTdMSry+daPn+ISz5H2+jNkMnEP6KbPbSt9NnuA33rWrUCtfjx/HZi4nUPGja89lRP78MHXI7fw/e/31tQi0n2cL3kQNDX+gvkmjuN6zIi2umdg96vrcYWwJriz7Rj8+bY6/+73xBJHl7tO3SF9theWE7RhrP4fhjibX8uA7eh/uemph/zfay+LcqE/m3RCC+bT2a5WbjSVwRNfApmUnx60s3nP9nFOP6y6S5ZSGKVlpilqnJxHFcLI6jnvdYW8+hP2bZmlyWG1rb4drRjLzec9iTyDxnoTFJMjeg/1xTcidQ/qAZtz3Qom0no7yGmDhHm3DySoM6l1bCkh2fLzpgv7octrundjb5Lzkx+GU+rHdN9aAkGjdCytzGTnx8pPzGCZvVG45pNql/xFTWPpTr6UUabkrZL6T/QG5c99ivF7vTKYXwnlDq9O9dPox27p3oP6I/1k5xnVE5cq12hZIr58x6+sSNIwsNS7SvRnhJi19XI6/JSGEE1xiUD6PrUIb0t9EfU50j0fveXmVTgfh3iqqVQ1HnkEqM2i9S/6zxTWMQ28S/HXsKnpiSFp8zlD7yVf374hpZqo3kVr+brb1p7uMV0XX9I+6KZxr/ELI58YE7MP/r69Hxkb6PIvubR59pPEWPs+7os3UnILT/wIb80NmL4+FGz7ZlmD9/GerfnYarHKTCVR8mFvKwIj8vkRpoIZr2bZ1aDfjWPFS1nsXHV87heLNtCsubhNxu8nhFBJqK5MQv2X9t/dfn444HOhD/jeAZ6po/ZOmW1ci/S9+Mh7kc++um1kKZs6YBx4eu4OP/3YltYW/BTYUoX8PqQjlCAZYvilW+fHDLWeIHnHAbKNimrwX+8jH4ruqbCUpOfM5glz8XVw9NkWWuvmWEBx59dQAsmntja5eQ2sTL74PPJx6hV2T/EByB/hGwXdc/IsADx6E2dJ2NUpI+cqD5rNyYA1Oyy/50dLYDZcUlKEnVY91u2BPtZSqX+pDlZNL9/ZA1xWT/gW+EC5UiEB9vQ9s7gdMjjJR1Op0pDHbuvY71xYNo+GamnJgm3DJH37wcazmyECmMX8Pv6f3X5pjivN1GqjV5xvo+XWfbywdRepMWhjZmVCT2+iaKEHVVny9daPvOejT2DWPgaB2WrdiCvhj9zQKLUwODGP1c34wllfE5k10eCyZeefPiqGD5vCICaEot4X8vdYnXxR5sWTYf8+eLx0MhtbpzTnTrm3hcFCx9c5Lhbjzd0A3frCj1kpXb8P5rnTj+f4+iKlnrWE1n/9iEj69cwZWUPTpRmkjlP9ByKcvJ8pAOtyJhsgdqDflFuCuk43bQZTsOVzeKkyNwVQ0jZZ1OpzFRK56o383BLQl8bTlzohyTtDPDEmgdOTMa0poXRYrjV+Hj76PzteM411XFhayNmmWaaEGdc0tCCatZJLoZzePGUGAMyZp8RG5s9sPZXoeh8uM42lyLbTZRijw96P4gRu133hKRJkkeeL0GqiCpjs8ZzC8SLy21tCJC/hSe+L1AvLCY05p4/T/YD2xBT6AMnPVgTF8sU64kHthdsMgcpsnXB/sbrXBt3IGKqCMSclBQVg7bAl5Ms5nrjTq95VLwiIuivmiw70MHAjd0UChqt/pmKNexVnTlN6FiTZQEXYRny/3lKP9mtJ+hSXIKULRR34YX4wbis++PbdgbbAkSr68abldKC/Mi7XIjbzXGvt6IGJTq+HV7AcrLbLDMxEXwEyUu8MHKnXfcUMulu78FhwKDRAQ52jajXRxBj76JwiWRk3KR1HT1b8AOdcoSHwbfk9HSjLw7YsS5BZZgZWHYwMrPqY/PmcvjDmTAhVgSR+OO3z0C7WZxKZYvCp+fpCjxugZfyKr7hY0PoEjOnyNXEm+fuEsfjvv4j1HzahE6m8OMBKBp59rVifJgfvg7sKoF3I3eN7rUfZHIPjJ1T11DQ0stCpl7J5kZJdub9NaFbvSfinLL3+dG354SrLB2wPRgebBFwnEpENR9cL7Rho6B2EE+lSyW4OUG7r/omxH5Gb8yUiGq/kVPoE91oS/a7CIeJzp+tAzLfjyCJZU2fac4Pp5AORyB/aU29GVY/2D3JxPlqzw4P9yN/Bfc8D5u0863yw7Yj4pnQ9O+5KHocW3LMTwizs7oZm58DulrF6llO4KRjwa0jUgtgZLeyT7phg5oa7dVv6kvjuvV19Zau1fpfVOf1fZbu5QTgS7/wUVNYyw+LGcNdpxWTjuGkrK+Gd1c3r4atZyse/a0NtJIHF914dXcauXIbwPr3m1WDgXWWAwuyhxrZnCvMuqU5WRQGZ3q6J0ZKWS5oNxNyl6HtvCtShyDsZHTSvfz1cqK3NlK7kO7lF51rTxtlmv1d0q1BaLH7LvFsYq+rEtahIzUNDJKM2Xxa2xIlElRLl3JHa02c4QsF7S2TunWFyZXXRXnvKtXObRzk7JUvL+06pAyJN/WVyFQf6f+hBzjrJx/XS7onKKlahKmz6gvP6fhUZviG5HrEYrfMbrm4cR6jbGXDUpdfM50g8GVOOIbuTwxijbaSM/UTSdxVXzwh0LXa9JPBHX6h3Hl/Js16skR+r4M4N3RFh92i+D5ULFS81yrUicD/JSWA6DMMKr0/jBkJX69HJzQF731vrf7xjUmCzYrrWEXa9apK+mvUDY/3ars3iouoCJI9E6LRdTTTZynPbvUofOTvn/1kausqKhTDoUmZJK7V6mZ9PNLlZrfZkIADplWwMiyQSmIX6O/q1OKH6pRdh+oU9e1XLdvaPJ3RwZ5lcEDWtIf+v1rj6XKuh+K5Dg0IRPk4uWT4khucfQE+aYQcetbgc+4y+A6n4GpC4wuLSQEF382ktylID5ng+DUJTVKbzzJebCCF/27Tfk8XuNurYY3OBLmQIjs+LzeKnF+LFYpk4FzojYZmDPo5i6+S8ky/sV5ZVBvCbihJPx1XNRkZTk5rQy5vTEuVlpLTaC2FajdTWm+pRlvXPHq57F2Lo8pUadFCx4vcV5nUItCsKYfx9qRSYtf8mInKoqDauIWmFfM6Hp5FJYoZ2Mjg8FyqcaGaHdBgsdrSIl5ubkZQteVNDrXWCBB+PYRkSIZ5RXJlPb/MdpKlrz4nB0CLd7xrucZaCGMFWNuygSqCZEFLPglBGoGkVc9pxnqi16lJljoAwEmV9ntmA7hgKZElg0ZFOO4jZMsMpDX9OkhPKGLJU17IROSGq0oBhKE4M/LshVh0s5QsgVQLYO5uw22rM0kgfwi3jgxkdAGz/UIbsIEqolxXxiBbaNVG0U0PIBu2bHS0FpdNJMk3umUpr3bbahqlCXDhda3HMbn85oyNy58YkPpam10l+tUtzpMvfS7D3AqiRnLB+ehelR+rx4dH2hd3N3BCbyqULHGyNAMF+zqYI+Jn3ed6kWRuE7G+m3TyirskCOXPS3o4cTSk/j6D6NR5heVDaiKZ63H4S60yOtN/h5sLYkxklNPwLLIuHL6Wa3vRayskma2eDud0gwQ7N8SZ9+NZAl29L5J/3/KCEPt+sAV+cjdqwwpXuXETu117rOnDd6u029ZP9KttZy6jyibq/RtIz45ovY1jOfW+/Q3pLSulcch3rtp8vjJvCRX2fVe7KOXNS1eQf5B2PfLIcG1KL8/O+cHoXRww9Ejl7SwitpHYJIDmvHmlWNPq5xeQNZOo08NkQr+D+xokeHriXLY4lq4nKYPF+wHgtPTA/lmzAmuiGBD06OxF6TXFKL0ZRvM/YfQ+KMyrN/pxtYXy423ot5Zhf3yXBhuRPMbWTq7fJK5j7Wg8aw4Cq3745qY3f9BK5pf9cD8xKtoMrL4up6AZY1A5zXjtQKakdiPhiIKTHuR7j6i7HNI0sQiytpIWG9w4fVERrqOe72KVzwSK1GB6Tk2K936SMUZy621hudujaPVULo6qOyWfcKCg2diy7LEayJwBUYzen9XF+fK4TQTJNrplGYIEWSr5S2/eG7NTFWgc39uYDSjdnti74fqC5pBZOd2dQ6s3BVK8UMrlFxxTSt+Tp8rK92uTsxRZzRxmHbk9DFrRdJV0apPGWOUnriurQtOsWFEdt1q9DjQq3Ze2wHbSrnDB0f/EHbcz1tJFCrxTqc0Qywox8H/1Y7yM1uw5QVnWjraewZ6Ief7LthuQ6HccdmBPpeIZd+UL2gmMa1swMmP38fRZ6pgK/kJXh36A/ob9cFj6XZrHqp++Tba87qweWcPZt5NRzd6dm5GV1473n6tFgWGl/Hyw/nCFuz6SxX6u/fBFmmW+jC+IrMvfTvzXepB5X/Zgr6fnsSVxkL4Bpqx5f0HcFRsc8waTXCi5bb1aC7pxLlflcNysQuVTbdgz5E4+j/QjOC/0IX6imaMP30Sneq6d6njOV6JxdV9aDhxBU3/KCqNe7ZgYO1Rsc3oRZnAD5/vGmbl5My466nf5wMS+LvV37tV/J5cUiwO2ZV4yRaupk0oOTYH5fd7RZ5ahYMtVcjjQrN0nZGjZSj+kRdFlXMw5ilAU0cTrOzMTOH4ffBdmyXiboovN5cdaKwoQfffleOBL9zA9w9iX2UeK41EM0yWJV4amWWKvDz1gZKymlZOMCNrcJSh/uaH70tRKr+agxxWGIlmpKxMvIiIiIiyUfbN40VERESUpZh4EREREaUJEy8iIiKiNGHiRURERJQmTLyIiIiI0oSJFxEREVGaMPEiIiIiShMmXkRERERpwsSLiIiIKE2YeBERERGlCRMvIiIiojRh4kVERESUJky8iIiIiNKEiRcRERFRmjDxIiIiIkoTJl5EREREacLEi4iIiChNmHgRERERpQkTLyIiIqI0YeJFRERElCZMvIiIiIjShIkXERERUZow8SIiIiJKEyZeRERERGnCxIuIiIgoTZh4EREREaUF8P8BHOrhcQluHC4AAAAASUVORK5CYII=;" vertex="1" parent="1">
          <mxGeometry x="64.67" y="444.07" width="230.66" height="41.87" as="geometry" />
        </mxCell>
        <mxCell id="CYFQGRgLWxrWDskYF3xV-62" style="edgeStyle=orthogonalEdgeStyle;rounded=0;orthogonalLoop=1;jettySize=auto;html=1;exitX=0;exitY=0.5;exitDx=0;exitDy=0;entryX=0;entryY=0.5;entryDx=0;entryDy=0;" edge="1" parent="1" source="CYFQGRgLWxrWDskYF3xV-58" target="CYFQGRgLWxrWDskYF3xV-13">
          <mxGeometry relative="1" as="geometry">
            <Array as="points">
              <mxPoint x="20" y="640" />
              <mxPoint x="20" y="380" />
            </Array>
          </mxGeometry>
        </mxCell>
        <mxCell id="CYFQGRgLWxrWDskYF3xV-65" value="" style="edgeStyle=orthogonalEdgeStyle;rounded=0;orthogonalLoop=1;jettySize=auto;html=1;" edge="1" parent="1" source="CYFQGRgLWxrWDskYF3xV-58" target="CYFQGRgLWxrWDskYF3xV-49">
          <mxGeometry relative="1" as="geometry" />
        </mxCell>
        <mxCell id="CYFQGRgLWxrWDskYF3xV-58" value="" style="rhombus;whiteSpace=wrap;html=1;" vertex="1" parent="1">
          <mxGeometry x="72.5" y="600" width="215" height="80" as="geometry" />
        </mxCell>
        <mxCell id="CYFQGRgLWxrWDskYF3xV-63" value="нет" style="text;html=1;align=center;verticalAlign=middle;resizable=0;points=[];autosize=1;strokeColor=none;fillColor=none;" vertex="1" parent="1">
          <mxGeometry x="40" y="610" width="40" height="30" as="geometry" />
        </mxCell>
        <mxCell id="CYFQGRgLWxrWDskYF3xV-64" value="" style="shape=image;verticalLabelPosition=bottom;labelBackgroundColor=default;verticalAlign=top;aspect=fixed;imageAspect=0;image=data:image/png,iVBORw0KGgoAAAANSUhEUgAAARcAAABMCAYAAABH7fNUAAAAAXNSR0IArs4c6QAAAARnQU1BAACxjwv8YQUAAAAJcEhZcwAADsMAAA7DAcdvqGQAABN+SURBVHhe7Z0PUJNnnse/e+eM6bkYZ5wxzPbasIridYRoB0LPtTAtiqPyZ7oa1lu5tFWgWwnaPaS1ZdndymFbwO4JtiOg0xq56zawZ5O0xwDuaVJrl9BTgrctsaObt+oO2SuziaPDy6w77z1v8qqYvIEk5IVAns/Ma57niQl5n/f3fp/n+T2/53m/wxFAoQRgQ8PC9aitPo2br6iFsiD0N2BhTi1qfnsTVRlCGSXu+RvhlUKhUKIK7blQKBRJoD0XCoUiCVRcKBSKJFBxoVAokkDFhUKhSAIVFwqFIglUXCgUiiTEkbiwsHd2wM4KWQplWohfu4sjcfHgstmIyyNClkKZFuLX7uiwiEKhSEKciYsJzj8KSQpl2ohPu4sjcWHgPCUkJccD2+F9aB2M1YE2C/thHZpj9vdNA990oLqmBy4hGzrh1t102l1sQYdFUYeF7a1itDxahbI0mVDGw6Cnbh+KC/ORX7iNCI9QLDGsy0V+kT8yqPZWIfHoPnR8IxTFE0RYdu12oqg6FwqhiMfTr0f1bv76kIMIj0cof5A4r7swoOISZdjPG1D5pRYHnxlvtjxKZOmqULTCAsuZJCQphWJJYOH5xg7T4WJkLNdDXMeU0OxT48PnG+JsJoNBR00TVv6iAqrx2k+Qpxbi5dJ84IwF7kQF5EJ5IPFad+FBxSWq2NH2sx4UVWoeaBHvIuOtlW8O8zOREtxyxWHt6OhihMwEXGwlLa8G5f9mRd8FE7mVJmBpESqyWlHbGcL3zhE8Xc14bQHpVWb4KQsPuUBycoGGSDL3cZWvLBhxWHfhQsUlirBWE5rGipCVJhT4ww6h79eAau0K0vaFychlGAdD8BCsKYPZaEb72xUofEwoC4oM2ZvLYD9qIrIYDzAwHmvFxk3ZQXsljN0KF8qQSetuylBxiRos+s7ovb2SoG3eJRsM5CXrsRRfPhZIVaNo0ADrNPmAZpSrFph6C5D9eDBpccFGhkR4Ki20nmU81V0EUHGJGg4M9rqQtSJ4n4T5va9VzH5c6JKP2ND6L8XIf7YaPTPlHJQlYXW+HT0X5n733uMYRI9ChRUPCwX+kJ7lwCnSs8xVCT1LFg5zA3SF+dC12AMd43FUd5FAxSVauBgMkBZs5d+LeVt4HmwV2ct6VB9zo1CnRdotE/S28CdFo4MSSjIEsNyYqb8/fTi/NAJrk5Ao5AN4oGfpgeWtWvQt06J08xL0NfaIOMbjp+4igYpLtBgbwxgKkBRMW8a1iorBVjTbMlHzSi6GzZVo7mWRsiRcD28UmUeOy0wEMR+zizGWnCHpWQa7RPd6lmku9LxFhrglddAq+tBW1QFHmkL8c3FSd5FAxSVauJww8a9/680FIrSKi+xtqB3MRkVxCvjBkaq8H9euXUJNljBUus3AZrXA4n/YhuC5MRBYzh/9jEgsS+golAVCai7jAnOZvPBiIIrQs1wxDFOdAfNLKpC9mBQvLkDjtWv404daUSd8fNRdZMSRuMwnliAkZwBfq5iLFMUoehqLUVxDWsPb5I15MsjlItOilOnlbs/ycSVkjB66Ih2aP/eF0cnkcsiCitJkzKzdzSTi4vLXMdhvRNIWsmAGp9aKSkciktYKSSlYrEA2//pXb84PF+znSauY/yNU1B5H/2fvQHVmF/IaLYF1tUAJdVY2sv0P9UrIH14dWM4fGeSGED4eCS7G2+ea48ix5FHycseXC+ArX88y9/k6NP7mEj4udaN64y7or/reDsbkdSex3cUwouLCjXmwrS5Y+PMEXDWgcrcJDiHrj+dqDzo67eF/b9QoQNL3hGS0WbAIS/gFamKDb//4lgUKrCQJl4f30/CBXftQfWYGJZm/4SbwRcwNZFi0iJxhEP+If3yLUsk7dV3w3OJzdjQ/qxcPSAyp7iS0uxhGVFy+83cJKOvVwziJavtjN7cBPykQjfNgLzZg6+pt2LXzSdR2zYy8GL9ywNh8UMhFGYUSK4mFDV0XMV2hVbwf3+LGMLHUFCUfYu6BpVeO3H+M/tBo1KtXk4kWA+ZLYv7L5n7fPXFpFnDeiWEhfx+hZzkuvsXj5m1UBSU/bT1oxcCGbBGfS2h15/j2W+nsLoYJ4nN5CLk6F0znw5m/t6HniAIFa8XcXuRiOYfI/yAoNMhKm4mZETkefSIL/3fpMyEfbVKg3g5YScvoj+uKHS7FuPgWYrQFL2ngtp5E86vVcPxTFbKjpS03OlC8cCEWkiP/EF/QgPVCvrhTRPhYJwbMKtJii1+3uYRCRYaQLjsu3xAK7sHAQXqW6s2Z9wREnlWEmgw7jEdqofsgET8vFqmfkOpOjrStWpjefVPIzwDBhoJSwz9xUZQrJ7i8HzRxA0J2MkYtB7jkF42cW8gH4uactj5u6FshOwMcPHiQ27x5s5CLPt46EKuzv4xy7ltCejy33OLlYlw3cDve7BMyUcRWL/6b5yRO7sQPE7hyU6CVjrrd3KiQvg+5bqLlAiHWndVq5RISEoTc9OG+0s21VORxyUUnyJlPP8Fni5ZmQ6MINbTZA+tHDROu2eAVXJmhRgo/vTdHkWUVYM98kTrjZ4QWCOnxLJCLl4uxeAUK06I9dGFh+a9WZL5UFHzJwpxCicKSMnR3WQL8ft4ZISF9H34mT6ycJ3brzsVvHbE1Fek//hBj+Y344t/Fp9GlJri48BfiORWaTonMaPgzYoHJXAXNhhkMBAsBIqZCSipUKP3XXBgOdYg6DaeETAXNpiibyFUDmq17ULVt7vtb7iLfVIGDtxvQ2j9FB3rM1Z0HTG8rdHnLse51G5R7T+PS746jYkMK5BFPo0+NiR9EP2KC7vt6yGrFnFn3cTuM0CsP4utX1ELJOO544Lg4AI98NdQrZlZ83njjDZw7dw6ffPKJUBKE2wzs/+PEWKLfbx5xwPb7YcxflgnVw8GcJPxmURq0rDiG4wF7usQSDDp2NwD7j0DDT9HOKlh4Lg9iYHg+VqpVUNy7FCxcg30YGkvE6jUT3FTCZlF7OqsC9nQJjfDq7tNPP8WWLVtw8+ZNoSSKkPvL3tWKhppa2JdVoGr/HmgzYsPuJui5EBbnQlNph8UxHylr0pAmdjwGONrHsGdToLDw62d069aj+j09arc8gtTdk+wvEgS2vwH5yxdi4WodTAHOuNCZtOdyh4Hp1Xyk5ujQ9pEZ9UWPYHleA2y3WXKOOmRsqYbhow5UbklF/mGRhWxeZFC/0o4XviGtY0xvc9mA4Z80zjph8VxsRfHqDGytM8D8fgnWLUmF7hSxKtJ7rs17EjuOmmFuLEZ6+gS28qgGx99NgqEu0m0uY6Du7rhga6/GtvR0lJySQWu4hku/qZNGWEb4jcf2oTgn1Tsx4DtI/U72RAO+5zIRXiflDydwCNmbuHUFIu/fOsu9ptrJGRg+M8wZtAlcQsI6rsnufTcMhjljKf9Z37GjY1goD5+JHbpOzlC6itv53tB9Bx7vRCV/M3lLHpejJef4F1If9hZuh4r/La9xZ4N6+ihSMGqr53KePsCdHTcp0PdmMrkWOVzelhzugIV31Dq57v15XDK5bnnvzYQbM5CoOnRHh7mzR8u5vORkLq+ihTt7XUojHOWGTpZzq7z3QDnXYurjhobdXie32z35352450LwOildJliCxLzYupqg0AQOm+zv18Lx0s8FdWfgPO8tjgAFVOQ3+PRYDdUyaYZWrlMHcEBxBO8851vz42XxEu95uaxD2KjTQjnPhZ4j+2Di60KxCA9F1KWmRARrR/P+PmjbanxrfgQUipXkXxssi19AWRaxjYsGlL9j8fZI5N+dQxeI7z28VYzUJevRfF2NmnNfw9xUhuygw/Opwg/v85CxWw92+3Gc/vgIyvLVSFHIvU7uUJasTCou3piMkjG0mUX222It6D62EdoAR6Md1g8S8aMNvnLW2o1W/mqnTbBL2wQoi9tx6X/70f+H06haE3llEjEVUv7YYTj0J1Q9n/3gzAAZ11u9iSKoU/lXOZSqXCiX5qKiiZR536NMB54zJ1G7tgJFS4UCLx44Bi3eVPZTal8DtCQFGx9TImVbI6o2xbLPK0RYMlSv2YbU7xfDQOyw/Q+X0FmrhVriU/N0/Qw76vjINC0OvaGJaLZpYofuXa7qsW2jCy9/XfXADeUx6/BIVy6uvVsQMAXNeljIvOrGwlKzBPmHiQE0XYL5uUh+ZnQgwyJ89tlnog7d+7/3Pq7OYizfaQJKOnHt7dyAc4xvGFhaTJiSW0mRhdLtqiBTvX6wHiIlpMV84D/b0LB8PWpdKtSd+xQVETRc08GUHLpEXHoOV6Oyzg5VdR2qSgqgkjycw4HWnAzs6yfJZ+rQuSuNX355n4eSkBnCerYQei6EpYXQbmhFt3W8JXlg6epG1Xbxm+7ejTrSgw4iLEAuNFkzJyyT4S8s/PnZz/sWpWWnpYQnLLc9QZy9lIjhN8/2v0SDfTB5PbJZSFvhLQkRFh5+RfpsQKZE7iuk537tY2hlRpQ8kYptNXpIurfY1T6YeWEhKK/3oPlQIxrHH0csoU3M8D2XUHCbyrmE8RG4V05wW5PrucliRr2fS0jgErQGLnJXbHSoq6sLI0K3j6tPDt8JPXqhnssh57vuSHzEvM4kwx07fLb10+4JIsP94ScIeCdwJdcd+oemxKxz6NrqffWakMeduCKURUBoPReCfIMGVb09sAjTT/auNrh0uZP4HRgY39d7U9ptwgOo7pBWgwxBYp6JWkW+ix605ZMh8akyVOXHR8zrzDFxz5L1TNB7/O5KFNQWgff/zjpkCmS/cATmr86hRs2geUsqMnY2wDQoxWLgFCROYQgWsrhAlo2NJd3Qe5+dwztsF6F0shvoqgUdvXyiDAXClXR9VIL0o+Fvl+4atES4x0wIsHa0PpuKhcvz7z0JkbnQQ86SsD0TKx/ojrOwvJWO8i7xfqlsTQXajY0omHWBabGNq7faG+uUWiVsBcIOwHKMTyiQpfIbbl/Vozi9NcjD4BQoeNuM9r3q0Hw9sco8BdTFdej84gscewYwlqUjdWs19P1RGC/d3ZsIfwY7hVsudHEhqDftgauD3OT883kUGmQ/4LkPhLF2wOvL35svtBIMuj9gUaMJb57F/s56LF+Xjyf/IQ8NF6MvMPxMxD4+EMtlweUbvOkysJh9sxBYlihMgwt8Y0ZbexFK58JMxKzBDsPrzbCQ+4b53AEnKWFtVu82FkAmkpZ4EwIsbB+0AdVxMps3Tw5VfhWO/+4STu9Vwvb6OizP06HVKvYY3xDh1xVu4BNWOKbwVIqwxAVpBSid14bK1/XY+Fzh5NNT3kcMAgWqld5Wgvn1AXSoX/abTpwMFxi7d7MGgg32K9Hv/rHsn8m/SuTu7UTFJjk8Vj3a3GqfcTLDvpaSx9WD2udboPqPGmT7LzgcsaGZf87wTD4mZA7D762teEyDxndLobrDwHBcD2UG33NmMHwvUtQDx/vl2MXswaGAWUkWjs5q77O6RR8TMuuRQZFVhiMff41zv8iG5/h6pD6xC829zH37DRkltL86Do3Chdr9DbCN/wI+MrhFh+reEL5V8L2EjPPkVi7k6NRbfVz90wlcgiqHy3t6FbfqRWNES79HbU3cVhUfJfhgdGa4BHXo8r9zSzK36uk8Lq8gh0sX/o77vw9weckJ98pXqXZwLRdEvID85/f5InjP/pKcb6lxxp3Xcw3nf5Zzq5LTyXUg1yIznSs/OcSN3hriTry4iku4V76Ky9tPbIxcB3+cHZVcPR/By5zgtiYkc/UXhDemgVm75QLTzdVrx9UvOdKTV3E73jRyQyE4w8MWF+7WAGfoGAi+x0UAo5zbMcANDUsZphwKo9x7tQe4905bhXwg/J4eAft3jLq5Ye/vD76vh/PkTmFGaYBr+gERwV+eDaN+KCFDroU39NxvD5xRt5MbsDuD740zepY78FPfTKdv9nLrlGZBwmNyu5McEbENi1vj7oEwvit8cZm18OubdnCG60I2irgdQ76pUH6dFd8q2rzFlFhhdJgbYni5d3PGF0nPclrDIqSzu1gnPJ8LRRT5Cn4qlIXlVBPsaXuQmyG8QYkNZAqkPCoDrhqhbx8XFkGRlDgTFxOcfxSS0Ybtg7XdBZUmK052dZt9MOdN6IEWuWunO8BFQruLYeJIXBg4TwlJCfD0dqDBleuL/WEtqL0bj0GJEewwHe2BolKD3MXEGtp3oTn8cKsIkNbuYhk6LIoSji/1wFMF3tgf5iMzZD/OCm89EkVablxGHxGToqxMyG7bYLAXoihGFzrOFai4RIm0p2ugHrFAX6dDw8g/o2IKW0NQJOBhNQq3K+Awt6H6VSNUFXf3CKJIRWhbLswJbGhYuB747U1USeVwvS1sCxDqjv6UaYZf1zaG+UF39JeCabC7GIX2XKJJOI8KocwAEz0qhBJtqLhQKBRJoOJCoVAkgYoLhUKRBCouFApFEqi4UCgUSYgjcZnPb0JGoUwz8Wt3cSQuiUhaKyQplGkjfu0uzoZFBUj6npCkUKaN+LQ76nOhUCiSEEfh/yxcFxnI1oT5gDMKZUrEr93FkbhQKJTphA6LKBSKJFBxoVAokkDFhUKhSAIVFwqFIglUXCgUiiRQcaFQKJJAxYVCoUgCFRcKhSIJVFwoFIokUHGhUCiSQMWFQqFIAhUXCoUiAcD/A+fxx32n7W8FAAAAAElFTkSuQmCC;" vertex="1" parent="1">
          <mxGeometry x="121" y="623.7900000000001" width="119" height="32.42" as="geometry" />
        </mxCell>
        <mxCell id="CYFQGRgLWxrWDskYF3xV-67" value="да" style="text;html=1;align=center;verticalAlign=middle;resizable=0;points=[];autosize=1;strokeColor=none;fillColor=none;" vertex="1" parent="1">
          <mxGeometry x="170" y="680" width="40" height="30" as="geometry" />
        </mxCell>
      </root>
    </mxGraphModel>
  </diagram>
</mxfile>
